# xmcd
#
# Track frame offsets: 
#        150
#        15761
#        32767
#        48104
#        68008
#        83933
#        102027
#        117568
#        131372
#        148461
#        166543
#
# Disc length: 2434 seconds
#
# Revision: 4
# Processed by: cddbd v1.5.2PL0 Copyright (c) Steve Scherf et al.
# Submitted via: ExactAudioCopy v1.3
#
DISCID=8309800b
DTITLE=Jess Glynne - I Cry When I Laugh
DYEAR=2015
DGENRE=Pop
TTITLE0=Gave Me Something
TTITLE1=Hold My Hand
TTITLE2=Ain't Got Far To Go
TTITLE3=Take Me Home
TTITLE4=Don't Be So Hard On Yourself
TTITLE5=No Rights No Wrongs
TTITLE6=You Can Find Me
TTITLE7=My Love (Acoustic)
TTITLE8=Rather Be (feat. Jess Glynne)
TTITLE9=Saddest Vanilla (feat. Emeli Sande)
TTITLE10=Why Me
EXTD=
EXTT0=
EXTT1=
EXTT2=
EXTT3=
EXTT4=
EXTT5=
EXTT6=
EXTT7=
EXTT8=
EXTT9=
EXTT10=
PLAYORDER=
